# xmcd
# Track frame offsets:
# 150
# 30372
# 43445
# 65626
# 85088
# 96186
# 107433
# 133031
# 143179
# 169496
# 180396
# 197654
# 208895
# 220068
#
# Disc length: 3257 seconds
# Revision: 0
# Processed by: cddbd v1.5.1PL0 Copyright (c) Steve Scherf et al.
# Submitted via: VisiTrax 2.9.10.228 - For more info visit www.synapsa.com
#
DISCID=cd0cb70e
DTITLE=Various Artist - Eric Clapton and Friends Live
DYEAR=1900
DGENRE=Blues
TTITLE0=Smokestack lightning
TTITLE1=You Can't judge a book by it's cover
TTITLE2=Take It Easy baby
TTITLE3=Let it rock
TTITLE4=I Wish You Would
TTITLE5=Boom Boom
TTITLE6=Who Do You Love
TTITLE7=I Got love if you want it
TTITLE8=Good Morning little schoolgirl
TTITLE9=Respectable
TTITLE10=Five Long Years
TTITLE11=I'm a Man
TTITLE12=For your love
TTITLE13=Sweet music
EXTD=
EXTT0=
EXTT1=
EXTT2=
EXTT3=
EXTT4=
EXTT5=
EXTT6=
EXTT7=
EXTT8=
EXTT9=
EXTT10=
EXTT11=
EXTT12=
EXTT13=
PLAYORDER=
